<svg aria-roledescription="flowchart-v2" role="graphics-document document" viewBox="0 0 1379.62890625 1300" style="max-width: 1379.63px; background-color: white;" class="flowchart" xmlns:xlink="http://www.w3.org/1999/xlink" xmlns="http://www.w3.org/2000/svg" width="100%" id="my-svg"><style>#my-svg{font-family:"trebuchet ms",verdana,arial,sans-serif;font-size:16px;fill:#333;}@keyframes edge-animation-frame{from{stroke-dashoffset:0;}}@keyframes dash{to{stroke-dashoffset:0;}}#my-svg .edge-animation-slow{stroke-dasharray:9,5!important;stroke-dashoffset:900;animation:dash 50s linear infinite;stroke-linecap:round;}#my-svg .edge-animation-fast{stroke-dasharray:9,5!important;stroke-dashoffset:900;animation:dash 20s linear infinite;stroke-linecap:round;}#my-svg .error-icon{fill:#552222;}#my-svg .error-text{fill:#552222;stroke:#552222;}#my-svg .edge-thickness-normal{stroke-width:1px;}#my-svg .edge-thickness-thick{stroke-width:3.5px;}#my-svg .edge-pattern-solid{stroke-dasharray:0;}#my-svg .edge-thickness-invisible{stroke-width:0;fill:none;}#my-svg .edge-pattern-dashed{stroke-dasharray:3;}#my-svg .edge-pattern-dotted{stroke-dasharray:2;}#my-svg .marker{fill:#333333;stroke:#333333;}#my-svg .marker.cross{stroke:#333333;}#my-svg svg{font-family:"trebuchet ms",verdana,arial,sans-serif;font-size:16px;}#my-svg p{margin:0;}#my-svg .label{font-family:"trebuchet ms",verdana,arial,sans-serif;color:#333;}#my-svg .cluster-label text{fill:#333;}#my-svg .cluster-label span{color:#333;}#my-svg .cluster-label span p{background-color:transparent;}#my-svg .label text,#my-svg span{fill:#333;color:#333;}#my-svg .node rect,#my-svg .node circle,#my-svg .node ellipse,#my-svg .node polygon,#my-svg .node path{fill:#ECECFF;stroke:#9370DB;stroke-width:1px;}#my-svg .rough-node .label text,#my-svg .node .label text,#my-svg .image-shape .label,#my-svg .icon-shape .label{text-anchor:middle;}#my-svg .node .katex path{fill:#000;stroke:#000;stroke-width:1px;}#my-svg .rough-node .label,#my-svg .node .label,#my-svg .image-shape .label,#my-svg .icon-shape .label{text-align:center;}#my-svg .node.clickable{cursor:pointer;}#my-svg .root .anchor path{fill:#333333!important;stroke-width:0;stroke:#333333;}#my-svg .arrowheadPath{fill:#333333;}#my-svg .edgePath .path{stroke:#333333;stroke-width:2.0px;}#my-svg .flowchart-link{stroke:#333333;fill:none;}#my-svg .edgeLabel{background-color:rgba(232,232,232, 0.8);text-align:center;}#my-svg .edgeLabel p{background-color:rgba(232,232,232, 0.8);}#my-svg .edgeLabel rect{opacity:0.5;background-color:rgba(232,232,232, 0.8);fill:rgba(232,232,232, 0.8);}#my-svg .labelBkg{background-color:rgba(232, 232, 232, 0.5);}#my-svg .cluster rect{fill:#ffffde;stroke:#aaaa33;stroke-width:1px;}#my-svg .cluster text{fill:#333;}#my-svg .cluster span{color:#333;}#my-svg div.mermaidTooltip{position:absolute;text-align:center;max-width:200px;padding:2px;font-family:"trebuchet ms",verdana,arial,sans-serif;font-size:12px;background:hsl(80, 100%, 96.2745098039%);border:1px solid #aaaa33;border-radius:2px;pointer-events:none;z-index:100;}#my-svg .flowchartTitleText{text-anchor:middle;font-size:18px;fill:#333;}#my-svg rect.text{fill:none;stroke-width:0;}#my-svg .icon-shape,#my-svg .image-shape{background-color:rgba(232,232,232, 0.8);text-align:center;}#my-svg .icon-shape p,#my-svg .image-shape p{background-color:rgba(232,232,232, 0.8);padding:2px;}#my-svg .icon-shape rect,#my-svg .image-shape rect{opacity:0.5;background-color:rgba(232,232,232, 0.8);fill:rgba(232,232,232, 0.8);}#my-svg :root{--mermaid-font-family:"trebuchet ms",verdana,arial,sans-serif;}#my-svg .stageClass&gt;*{fill:#f9f!important;stroke:#333!important;stroke-width:2px!important;}#my-svg .stageClass span{fill:#f9f!important;stroke:#333!important;stroke-width:2px!important;}#my-svg .jobClass&gt;*{fill:#bbf!important;stroke:#333!important;stroke-width:1px!important;}#my-svg .jobClass span{fill:#bbf!important;stroke:#333!important;stroke-width:1px!important;}#my-svg .artifactClass&gt;*{fill:#bfb!important;stroke:#333!important;stroke-width:1px!important;}#my-svg .artifactClass span{fill:#bfb!important;stroke:#333!important;stroke-width:1px!important;}#my-svg .securityClass&gt;*{fill:#fbb!important;stroke:#333!important;stroke-width:1px!important;}#my-svg .securityClass span{fill:#fbb!important;stroke:#333!important;stroke-width:1px!important;}</style><g><marker orient="auto" markerHeight="8" markerWidth="8" markerUnits="userSpaceOnUse" refY="5" refX="5" viewBox="0 0 10 10" class="marker flowchart-v2" id="my-svg_flowchart-v2-pointEnd"><path style="stroke-width: 1; stroke-dasharray: 1, 0;" class="arrowMarkerPath" d="M 0 0 L 10 5 L 0 10 z"/></marker><marker orient="auto" markerHeight="8" markerWidth="8" markerUnits="userSpaceOnUse" refY="5" refX="4.5" viewBox="0 0 10 10" class="marker flowchart-v2" id="my-svg_flowchart-v2-pointStart"><path style="stroke-width: 1; stroke-dasharray: 1, 0;" class="arrowMarkerPath" d="M 0 5 L 10 10 L 10 0 z"/></marker><marker orient="auto" markerHeight="11" markerWidth="11" markerUnits="userSpaceOnUse" refY="5" refX="11" viewBox="0 0 10 10" class="marker flowchart-v2" id="my-svg_flowchart-v2-circleEnd"><circle style="stroke-width: 1; stroke-dasharray: 1, 0;" class="arrowMarkerPath" r="5" cy="5" cx="5"/></marker><marker orient="auto" markerHeight="11" markerWidth="11" markerUnits="userSpaceOnUse" refY="5" refX="-1" viewBox="0 0 10 10" class="marker flowchart-v2" id="my-svg_flowchart-v2-circleStart"><circle style="stroke-width: 1; stroke-dasharray: 1, 0;" class="arrowMarkerPath" r="5" cy="5" cx="5"/></marker><marker orient="auto" markerHeight="11" markerWidth="11" markerUnits="userSpaceOnUse" refY="5.2" refX="12" viewBox="0 0 11 11" class="marker cross flowchart-v2" id="my-svg_flowchart-v2-crossEnd"><path style="stroke-width: 2; stroke-dasharray: 1, 0;" class="arrowMarkerPath" d="M 1,1 l 9,9 M 10,1 l -9,9"/></marker><marker orient="auto" markerHeight="11" markerWidth="11" markerUnits="userSpaceOnUse" refY="5.2" refX="-1" viewBox="0 0 11 11" class="marker cross flowchart-v2" id="my-svg_flowchart-v2-crossStart"><path style="stroke-width: 2; stroke-dasharray: 1, 0;" class="arrowMarkerPath" d="M 1,1 l 9,9 M 10,1 l -9,9"/></marker><g class="root"><g class="clusters"><g data-look="classic" id="artifacts" class="cluster"><rect height="113" width="1340.43359375" y="1025" x="22.01171875" style=""/><g transform="translate(661.416015625, 1025)" class="cluster-label"><foreignObject height="24" width="61.625"><div style="display: table-cell; white-space: nowrap; line-height: 1.5; max-width: 200px; text-align: center;" xmlns="http://www.w3.org/1999/xhtml"><span class="nodeLabel"><p>Artifacts</p></span></div></foreignObject></g></g><g data-look="classic" id="stage5" class="cluster stageClass"><rect height="104" width="394.828125" y="1188" x="934.59375" style="fill:#f9f !important;stroke:#333 !important;stroke-width:2px !important"/><g transform="translate(1085.671875, 1188)" class="cluster-label"><foreignObject height="24" width="92.671875"><div style="display: table-cell; white-space: nowrap; line-height: 1.5; max-width: 200px; text-align: center;" xmlns="http://www.w3.org/1999/xhtml"><span class="nodeLabel"><p>Deploy Stage</p></span></div></foreignObject></g></g><g data-look="classic" id="stage4" class="cluster stageClass"><rect height="104" width="456.96875" y="871" x="914.6328125" style="fill:#f9f !important;stroke:#333 !important;stroke-width:2px !important"/><g transform="translate(1092.234375, 871)" class="cluster-label"><foreignObject height="24" width="101.765625"><div style="display: table-cell; white-space: nowrap; line-height: 1.5; max-width: 200px; text-align: center;" xmlns="http://www.w3.org/1999/xhtml"><span class="nodeLabel"><p>Package Stage</p></span></div></foreignObject></g></g><g data-look="classic" id="stage3" class="cluster stageClass"><rect height="104" width="332.90625" y="717" x="713.703125" style="fill:#f9f !important;stroke:#333 !important;stroke-width:2px !important"/><g transform="translate(840.1484375, 717)" class="cluster-label"><foreignObject height="24" width="80.015625"><div style="display: table-cell; white-space: nowrap; line-height: 1.5; max-width: 200px; text-align: center;" xmlns="http://www.w3.org/1999/xhtml"><span class="nodeLabel"><p>Build Stage</p></span></div></foreignObject></g></g><g data-look="classic" id="stage2" class="cluster stageClass"><rect height="312" width="1243.5859375" y="355" x="128.04296875" style="fill:#f9f !important;stroke:#333 !important;stroke-width:2px !important"/><g transform="translate(713.3984375, 355)" class="cluster-label"><foreignObject height="24" width="72.875"><div style="display: table-cell; white-space: nowrap; line-height: 1.5; max-width: 200px; text-align: center;" xmlns="http://www.w3.org/1999/xhtml"><span class="nodeLabel"><p>Test Stage</p></span></div></foreignObject></g></g><g data-look="classic" id="stage1" class="cluster stageClass"><rect height="208" width="358.82421875" y="97" x="8" style="fill:#f9f !important;stroke:#333 !important;stroke-width:2px !important"/><g transform="translate(129.708984375, 97)" class="cluster-label"><foreignObject height="24" width="115.40625"><div style="display: table-cell; white-space: nowrap; line-height: 1.5; max-width: 200px; text-align: center;" xmlns="http://www.w3.org/1999/xhtml"><span class="nodeLabel"><p>Validation Stage</p></span></div></foreignObject></g></g></g><g class="edgePaths"><path marker-end="url(#my-svg_flowchart-v2-pointEnd)" style="" class="edge-thickness-normal edge-pattern-solid edge-thickness-normal edge-pattern-solid flowchart-link" id="L_GitPush_validate_0" d="M169.766,47L169.766,51.167C169.766,55.333,169.766,63.667,169.766,72C169.766,80.333,169.766,88.667,169.766,96.333C169.766,104,169.766,111,169.766,114.5L169.766,118"/><path marker-end="url(#my-svg_flowchart-v2-pointEnd)" style="" class="edge-thickness-normal edge-pattern-solid edge-thickness-normal edge-pattern-solid flowchart-link" id="L_validate_compile_0" d="M169.766,176L169.766,180.167C169.766,184.333,169.766,192.667,169.766,200.333C169.766,208,169.766,215,169.766,218.5L169.766,222"/><path marker-end="url(#my-svg_flowchart-v2-pointEnd)" style="" class="edge-thickness-normal edge-pattern-solid edge-thickness-normal edge-pattern-solid flowchart-link" id="L_testCommon_testClient_0" d="M324.455,434L324.884,438.167C325.314,442.333,326.172,450.667,326.602,458.333C327.031,466,327.031,473,327.031,476.5L327.031,480"/><path marker-end="url(#my-svg_flowchart-v2-pointEnd)" style="" class="edge-thickness-normal edge-pattern-solid edge-thickness-normal edge-pattern-solid flowchart-link" id="L_testCommon_testServer_0" d="M412.461,424.381L442.599,430.151C472.737,435.921,533.013,447.46,563.151,456.73C593.289,466,593.289,473,593.289,476.5L593.289,480"/><path marker-end="url(#my-svg_flowchart-v2-pointEnd)" style="" class="edge-thickness-normal edge-pattern-solid edge-thickness-normal edge-pattern-solid flowchart-link" id="L_testClient_coverage_0" d="M408.125,535.583L423.199,540.153C438.272,544.722,468.419,553.861,504.464,563.294C540.508,572.727,582.45,582.454,603.421,587.317L624.392,592.181"/><path marker-end="url(#my-svg_flowchart-v2-pointEnd)" style="" class="edge-thickness-normal edge-pattern-solid edge-thickness-normal edge-pattern-solid flowchart-link" id="L_testServer_coverage_0" d="M675.766,518.316L759.719,525.764C843.673,533.211,1011.581,548.105,1035.83,562.351C1060.08,576.596,940.672,590.192,880.968,596.99L821.263,603.788"/><path marker-end="url(#my-svg_flowchart-v2-pointEnd)" style="" class="edge-thickness-normal edge-pattern-solid edge-thickness-normal edge-pattern-solid flowchart-link" id="L_compile_testCommon_0" d="M234.258,275.077L248.827,280.064C263.396,285.051,292.534,295.026,307.103,304.179C321.672,313.333,321.672,321.667,321.672,330C321.672,338.333,321.672,346.667,321.672,354.333C321.672,362,321.672,369,321.672,372.5L321.672,376"/><path marker-end="url(#my-svg_flowchart-v2-pointEnd)" style="" class="edge-thickness-normal edge-pattern-solid edge-thickness-normal edge-pattern-solid flowchart-link" id="L_compile_JARs_0" d="M124.049,280L116.994,284.167C109.939,288.333,95.829,296.667,88.774,305C81.719,313.333,81.719,321.667,81.719,330C81.719,338.333,81.719,346.667,81.719,359.5C81.719,372.333,81.719,389.667,81.719,407C81.719,424.333,81.719,441.667,81.719,459C81.719,476.333,81.719,493.667,81.719,511C81.719,528.333,81.719,545.667,81.719,563C81.719,580.333,81.719,597.667,81.719,615C81.719,632.333,81.719,649.667,81.719,662.5C81.719,675.333,81.719,683.667,81.719,692C81.719,700.333,81.719,708.667,81.719,721.5C81.719,734.333,81.719,751.667,81.719,769C81.719,786.333,81.719,803.667,81.719,816.5C81.719,829.333,81.719,837.667,81.719,846C81.719,854.333,81.719,862.667,81.719,875.5C81.719,888.333,81.719,905.667,81.719,923C81.719,940.333,81.719,957.667,81.719,970.5C81.719,983.333,81.719,991.667,81.719,1000C81.719,1008.333,81.719,1016.667,85.057,1026.428C88.396,1036.188,95.073,1047.377,98.412,1052.971L101.75,1058.565"/><path marker-end="url(#my-svg_flowchart-v2-pointEnd)" style="" class="edge-thickness-normal edge-pattern-solid edge-thickness-normal edge-pattern-solid flowchart-link" id="L_testCommon_testReports_0" d="M264.175,434L255.302,438.167C246.429,442.333,228.683,450.667,219.81,463.5C210.938,476.333,210.938,493.667,210.938,511C210.938,528.333,210.938,545.667,210.938,563C210.938,580.333,210.938,597.667,210.938,615C210.938,632.333,210.938,649.667,210.938,662.5C210.938,675.333,210.938,683.667,210.938,692C210.938,700.333,210.938,708.667,210.938,721.5C210.938,734.333,210.938,751.667,210.938,769C210.938,786.333,210.938,803.667,218.617,816.5C226.296,829.333,241.654,837.667,249.333,846C257.012,854.333,257.012,862.667,257.012,875.5C257.012,888.333,257.012,905.667,257.012,923C257.012,940.333,257.012,957.667,257.012,970.5C257.012,983.333,257.012,991.667,257.012,1000C257.012,1008.333,257.012,1016.667,263.634,1026.564C270.256,1036.461,283.501,1047.922,290.123,1053.652L296.745,1059.383"/><path marker-end="url(#my-svg_flowchart-v2-pointEnd)" style="" class="edge-thickness-normal edge-pattern-solid edge-thickness-normal edge-pattern-solid flowchart-link" id="L_testClient_testReports_0" d="M302.084,538L298.234,542.167C294.384,546.333,286.684,554.667,282.834,567.5C278.984,580.333,278.984,597.667,278.984,615C278.984,632.333,278.984,649.667,278.984,662.5C278.984,675.333,278.984,683.667,278.984,692C278.984,700.333,278.984,708.667,278.984,721.5C278.984,734.333,278.984,751.667,278.984,769C278.984,786.333,278.984,803.667,286.663,816.5C294.342,829.333,309.701,837.667,317.38,846C325.059,854.333,325.059,862.667,325.059,875.5C325.059,888.333,325.059,905.667,325.059,923C325.059,940.333,325.059,957.667,325.059,970.5C325.059,983.333,325.059,991.667,325.059,1000C325.059,1008.333,325.059,1016.667,324.79,1026.334C324.522,1036.002,323.986,1047.003,323.718,1052.504L323.45,1058.005"/><path marker-end="url(#my-svg_flowchart-v2-pointEnd)" style="" class="edge-thickness-normal edge-pattern-solid edge-thickness-normal edge-pattern-solid flowchart-link" id="L_testServer_testReports_0" d="M510.813,532.713L491.639,537.761C472.465,542.809,434.117,552.904,414.943,566.619C395.77,580.333,395.77,597.667,395.77,615C395.77,632.333,395.77,649.667,395.77,662.5C395.77,675.333,395.77,683.667,395.77,692C395.77,700.333,395.77,708.667,395.77,721.5C395.77,734.333,395.77,751.667,395.77,769C395.77,786.333,395.77,803.667,410.997,816.5C426.225,829.333,456.681,837.667,471.909,846C487.137,854.333,487.137,862.667,487.137,875.5C487.137,888.333,487.137,905.667,487.137,923C487.137,940.333,487.137,957.667,487.137,970.5C487.137,983.333,487.137,991.667,487.137,1000C487.137,1008.333,487.137,1016.667,469.657,1026.825C452.178,1036.983,417.219,1048.966,399.74,1054.957L382.26,1060.949"/><path marker-end="url(#my-svg_flowchart-v2-pointEnd)" style="" class="edge-thickness-normal edge-pattern-solid edge-thickness-normal edge-pattern-solid flowchart-link" id="L_coverage_coverageReports_0" d="M628.403,642L613.837,646.167C599.271,650.333,570.139,658.667,555.574,667C541.008,675.333,541.008,683.667,541.008,692C541.008,700.333,541.008,708.667,541.008,721.5C541.008,734.333,541.008,751.667,541.008,769C541.008,786.333,541.008,803.667,557.902,816.5C574.797,829.333,608.586,837.667,625.48,846C642.375,854.333,642.375,862.667,642.375,875.5C642.375,888.333,642.375,905.667,642.375,923C642.375,940.333,642.375,957.667,642.375,970.5C642.375,983.333,642.375,991.667,642.375,1000C642.375,1008.333,642.375,1016.667,642.375,1026.333C642.375,1036,642.375,1047,642.375,1052.5L642.375,1058"/><path marker-end="url(#my-svg_flowchart-v2-pointEnd)" style="" class="edge-thickness-normal edge-pattern-solid edge-thickness-normal edge-pattern-solid flowchart-link" id="L_security_securityReports_0" d="M1244.238,642L1244.238,646.167C1244.238,650.333,1244.238,658.667,1244.238,667C1244.238,675.333,1244.238,683.667,1244.238,692C1244.238,700.333,1244.238,708.667,1244.238,721.5C1244.238,734.333,1244.238,751.667,1244.238,769C1244.238,786.333,1244.238,803.667,1176.529,816.5C1108.82,829.333,973.402,837.667,905.693,846C837.984,854.333,837.984,862.667,837.984,875.5C837.984,888.333,837.984,905.667,837.984,923C837.984,940.333,837.984,957.667,837.984,970.5C837.984,983.333,837.984,991.667,837.984,1000C837.984,1008.333,837.984,1016.667,837.984,1026.333C837.984,1036,837.984,1047,837.984,1052.5L837.984,1058"/><path marker-end="url(#my-svg_flowchart-v2-pointEnd)" style="" class="edge-thickness-normal edge-pattern-solid edge-thickness-normal edge-pattern-solid flowchart-link" id="L_coverage_build_0" d="M817.289,640.237L833.991,644.698C850.693,649.158,884.096,658.079,900.798,666.706C917.5,675.333,917.5,683.667,917.5,692C917.5,700.333,917.5,708.667,917.5,716.333C917.5,724,917.5,731,917.5,734.5L917.5,738"/><path marker-end="url(#my-svg_flowchart-v2-pointEnd)" style="" class="edge-thickness-normal edge-pattern-solid edge-thickness-normal edge-pattern-solid flowchart-link" id="L_build_JARs_0" d="M855.586,796L846.031,800.167C836.476,804.333,817.367,812.667,714.271,821C611.176,829.333,424.094,837.667,330.553,846C237.012,854.333,237.012,862.667,237.012,875.5C237.012,888.333,237.012,905.667,237.012,923C237.012,940.333,237.012,957.667,237.012,970.5C237.012,983.333,237.012,991.667,237.012,1000C237.012,1008.333,237.012,1016.667,224.347,1026.719C211.683,1036.771,186.353,1048.543,173.689,1054.429L161.024,1060.314"/><path marker-end="url(#my-svg_flowchart-v2-pointEnd)" style="" class="edge-thickness-normal edge-pattern-solid edge-thickness-normal edge-pattern-solid flowchart-link" id="L_build_packageLinux_0" d="M883.912,796L878.729,800.167C873.546,804.333,863.179,812.667,887.155,821C911.13,829.333,969.448,837.667,998.607,846C1027.766,854.333,1027.766,862.667,1027.766,870.333C1027.766,878,1027.766,885,1027.766,888.5L1027.766,892"/><path marker-end="url(#my-svg_flowchart-v2-pointEnd)" style="" class="edge-thickness-normal edge-pattern-solid edge-thickness-normal edge-pattern-solid flowchart-link" id="L_build_packageWindows_0" d="M945.826,796L950.198,800.167C954.569,804.333,963.312,812.667,1013.383,821C1063.453,829.333,1154.852,837.667,1200.551,846C1246.25,854.333,1246.25,862.667,1246.25,870.333C1246.25,878,1246.25,885,1246.25,888.5L1246.25,892"/><path marker-end="url(#my-svg_flowchart-v2-pointEnd)" style="" class="edge-thickness-normal edge-pattern-solid edge-thickness-normal edge-pattern-solid flowchart-link" id="L_packageLinux_linuxPackages_0" d="M1027.766,950L1027.766,954.167C1027.766,958.333,1027.766,966.667,1027.766,975C1027.766,983.333,1027.766,991.667,1027.766,1000C1027.766,1008.333,1027.766,1016.667,1027.766,1024.333C1027.766,1032,1027.766,1039,1027.766,1042.5L1027.766,1046"/><path marker-end="url(#my-svg_flowchart-v2-pointEnd)" style="" class="edge-thickness-normal edge-pattern-solid edge-thickness-normal edge-pattern-solid flowchart-link" id="L_packageWindows_windowsPackages_0" d="M1246.25,950L1246.25,954.167C1246.25,958.333,1246.25,966.667,1246.25,975C1246.25,983.333,1246.25,991.667,1246.25,1000C1246.25,1008.333,1246.25,1016.667,1246.25,1024.333C1246.25,1032,1246.25,1039,1246.25,1042.5L1246.25,1046"/><path marker-end="url(#my-svg_flowchart-v2-pointEnd)" style="" class="edge-thickness-normal edge-pattern-solid edge-thickness-normal edge-pattern-solid flowchart-link" id="L_linuxPackages_deploy_0" d="M1027.766,1113L1027.766,1117.167C1027.766,1121.333,1027.766,1129.667,1027.766,1138C1027.766,1146.333,1027.766,1154.667,1027.766,1163C1027.766,1171.333,1027.766,1179.667,1035.917,1187.713C1044.068,1195.76,1060.371,1203.521,1068.523,1207.401L1076.674,1211.281"/><path marker-end="url(#my-svg_flowchart-v2-pointEnd)" style="" class="edge-thickness-normal edge-pattern-solid edge-thickness-normal edge-pattern-solid flowchart-link" id="L_windowsPackages_deploy_0" d="M1246.25,1113L1246.25,1117.167C1246.25,1121.333,1246.25,1129.667,1246.25,1138C1246.25,1146.333,1246.25,1154.667,1246.25,1163C1246.25,1171.333,1246.25,1179.667,1238.099,1187.713C1229.947,1195.76,1213.644,1203.521,1205.493,1207.401L1197.341,1211.281"/></g><g class="edgeLabels"><g class="edgeLabel"><g transform="translate(0, 0)" class="label"><foreignObject height="0" width="0"><div style="display: table-cell; white-space: nowrap; line-height: 1.5; max-width: 200px; text-align: center;" class="labelBkg" xmlns="http://www.w3.org/1999/xhtml"><span class="edgeLabel"></span></div></foreignObject></g></g><g class="edgeLabel"><g transform="translate(0, 0)" class="label"><foreignObject height="0" width="0"><div style="display: table-cell; white-space: nowrap; line-height: 1.5; max-width: 200px; text-align: center;" class="labelBkg" xmlns="http://www.w3.org/1999/xhtml"><span class="edgeLabel"></span></div></foreignObject></g></g><g class="edgeLabel"><g transform="translate(0, 0)" class="label"><foreignObject height="0" width="0"><div style="display: table-cell; white-space: nowrap; line-height: 1.5; max-width: 200px; text-align: center;" class="labelBkg" xmlns="http://www.w3.org/1999/xhtml"><span class="edgeLabel"></span></div></foreignObject></g></g><g class="edgeLabel"><g transform="translate(0, 0)" class="label"><foreignObject height="0" width="0"><div style="display: table-cell; white-space: nowrap; line-height: 1.5; max-width: 200px; text-align: center;" class="labelBkg" xmlns="http://www.w3.org/1999/xhtml"><span class="edgeLabel"></span></div></foreignObject></g></g><g class="edgeLabel"><g transform="translate(0, 0)" class="label"><foreignObject height="0" width="0"><div style="display: table-cell; white-space: nowrap; line-height: 1.5; max-width: 200px; text-align: center;" class="labelBkg" xmlns="http://www.w3.org/1999/xhtml"><span class="edgeLabel"></span></div></foreignObject></g></g><g class="edgeLabel"><g transform="translate(0, 0)" class="label"><foreignObject height="0" width="0"><div style="display: table-cell; white-space: nowrap; line-height: 1.5; max-width: 200px; text-align: center;" class="labelBkg" xmlns="http://www.w3.org/1999/xhtml"><span class="edgeLabel"></span></div></foreignObject></g></g><g class="edgeLabel"><g transform="translate(0, 0)" class="label"><foreignObject height="0" width="0"><div style="display: table-cell; white-space: nowrap; line-height: 1.5; max-width: 200px; text-align: center;" class="labelBkg" xmlns="http://www.w3.org/1999/xhtml"><span class="edgeLabel"></span></div></foreignObject></g></g><g class="edgeLabel"><g transform="translate(0, 0)" class="label"><foreignObject height="0" width="0"><div style="display: table-cell; white-space: nowrap; line-height: 1.5; max-width: 200px; text-align: center;" class="labelBkg" xmlns="http://www.w3.org/1999/xhtml"><span class="edgeLabel"></span></div></foreignObject></g></g><g class="edgeLabel"><g transform="translate(0, 0)" class="label"><foreignObject height="0" width="0"><div style="display: table-cell; white-space: nowrap; line-height: 1.5; max-width: 200px; text-align: center;" class="labelBkg" xmlns="http://www.w3.org/1999/xhtml"><span class="edgeLabel"></span></div></foreignObject></g></g><g class="edgeLabel"><g transform="translate(0, 0)" class="label"><foreignObject height="0" width="0"><div style="display: table-cell; white-space: nowrap; line-height: 1.5; max-width: 200px; text-align: center;" class="labelBkg" xmlns="http://www.w3.org/1999/xhtml"><span class="edgeLabel"></span></div></foreignObject></g></g><g class="edgeLabel"><g transform="translate(0, 0)" class="label"><foreignObject height="0" width="0"><div style="display: table-cell; white-space: nowrap; line-height: 1.5; max-width: 200px; text-align: center;" class="labelBkg" xmlns="http://www.w3.org/1999/xhtml"><span class="edgeLabel"></span></div></foreignObject></g></g><g class="edgeLabel"><g transform="translate(0, 0)" class="label"><foreignObject height="0" width="0"><div style="display: table-cell; white-space: nowrap; line-height: 1.5; max-width: 200px; text-align: center;" class="labelBkg" xmlns="http://www.w3.org/1999/xhtml"><span class="edgeLabel"></span></div></foreignObject></g></g><g class="edgeLabel"><g transform="translate(0, 0)" class="label"><foreignObject height="0" width="0"><div style="display: table-cell; white-space: nowrap; line-height: 1.5; max-width: 200px; text-align: center;" class="labelBkg" xmlns="http://www.w3.org/1999/xhtml"><span class="edgeLabel"></span></div></foreignObject></g></g><g class="edgeLabel"><g transform="translate(0, 0)" class="label"><foreignObject height="0" width="0"><div style="display: table-cell; white-space: nowrap; line-height: 1.5; max-width: 200px; text-align: center;" class="labelBkg" xmlns="http://www.w3.org/1999/xhtml"><span class="edgeLabel"></span></div></foreignObject></g></g><g class="edgeLabel"><g transform="translate(0, 0)" class="label"><foreignObject height="0" width="0"><div style="display: table-cell; white-space: nowrap; line-height: 1.5; max-width: 200px; text-align: center;" class="labelBkg" xmlns="http://www.w3.org/1999/xhtml"><span class="edgeLabel"></span></div></foreignObject></g></g><g class="edgeLabel"><g transform="translate(0, 0)" class="label"><foreignObject height="0" width="0"><div style="display: table-cell; white-space: nowrap; line-height: 1.5; max-width: 200px; text-align: center;" class="labelBkg" xmlns="http://www.w3.org/1999/xhtml"><span class="edgeLabel"></span></div></foreignObject></g></g><g class="edgeLabel"><g transform="translate(0, 0)" class="label"><foreignObject height="0" width="0"><div style="display: table-cell; white-space: nowrap; line-height: 1.5; max-width: 200px; text-align: center;" class="labelBkg" xmlns="http://www.w3.org/1999/xhtml"><span class="edgeLabel"></span></div></foreignObject></g></g><g class="edgeLabel"><g transform="translate(0, 0)" class="label"><foreignObject height="0" width="0"><div style="display: table-cell; white-space: nowrap; line-height: 1.5; max-width: 200px; text-align: center;" class="labelBkg" xmlns="http://www.w3.org/1999/xhtml"><span class="edgeLabel"></span></div></foreignObject></g></g><g class="edgeLabel"><g transform="translate(0, 0)" class="label"><foreignObject height="0" width="0"><div style="display: table-cell; white-space: nowrap; line-height: 1.5; max-width: 200px; text-align: center;" class="labelBkg" xmlns="http://www.w3.org/1999/xhtml"><span class="edgeLabel"></span></div></foreignObject></g></g><g class="edgeLabel"><g transform="translate(0, 0)" class="label"><foreignObject height="0" width="0"><div style="display: table-cell; white-space: nowrap; line-height: 1.5; max-width: 200px; text-align: center;" class="labelBkg" xmlns="http://www.w3.org/1999/xhtml"><span class="edgeLabel"></span></div></foreignObject></g></g><g class="edgeLabel"><g transform="translate(0, 0)" class="label"><foreignObject height="0" width="0"><div style="display: table-cell; white-space: nowrap; line-height: 1.5; max-width: 200px; text-align: center;" class="labelBkg" xmlns="http://www.w3.org/1999/xhtml"><span class="edgeLabel"></span></div></foreignObject></g></g></g><g class="nodes"><g transform="translate(169.765625, 27.5)" id="flowchart-GitPush-0" class="node default"><rect height="39" width="113.234375" y="-19.5" x="-56.6171875" ry="19.5" rx="19.5" style="" class="basic label-container"/><g transform="translate(-44.2421875, -12)" style="" class="label"><rect/><foreignObject height="24" width="88.484375"><div style="display: table-cell; white-space: nowrap; line-height: 1.5; max-width: 200px; text-align: center;" xmlns="http://www.w3.org/1999/xhtml"><span class="nodeLabel"><p>Git Push/MR</p></span></div></foreignObject></g></g><g transform="translate(169.765625, 149)" id="flowchart-validate-1" class="node default jobClass"><rect height="54" width="144.875" y="-27" x="-72.4375" ry="5" rx="5" style="fill:#bbf !important;stroke:#333 !important;stroke-width:1px !important" class="basic label-container"/><g transform="translate(-57.4375, -12)" style="" class="label"><rect/><foreignObject height="24" width="114.875"><div style="display: table-cell; white-space: nowrap; line-height: 1.5; max-width: 200px; text-align: center;" xmlns="http://www.w3.org/1999/xhtml"><span class="nodeLabel"><p>Validate Project</p></span></div></foreignObject></g></g><g transform="translate(169.765625, 253)" id="flowchart-compile-3" class="node default jobClass"><rect height="54" width="128.984375" y="-27" x="-64.4921875" ry="5" rx="5" style="fill:#bbf !important;stroke:#333 !important;stroke-width:1px !important" class="basic label-container"/><g transform="translate(-49.4921875, -12)" style="" class="label"><rect/><foreignObject height="24" width="98.984375"><div style="display: table-cell; white-space: nowrap; line-height: 1.5; max-width: 200px; text-align: center;" xmlns="http://www.w3.org/1999/xhtml"><span class="nodeLabel"><p>Compile Code</p></span></div></foreignObject></g></g><g transform="translate(321.671875, 407)" id="flowchart-testCommon-6" class="node default jobClass"><rect height="54" width="181.578125" y="-27" x="-90.7890625" ry="5" rx="5" style="fill:#bbf !important;stroke:#333 !important;stroke-width:1px !important" class="basic label-container"/><g transform="translate(-75.7890625, -12)" style="" class="label"><rect/><foreignObject height="24" width="151.578125"><div style="display: table-cell; white-space: nowrap; line-height: 1.5; max-width: 200px; text-align: center;" xmlns="http://www.w3.org/1999/xhtml"><span class="nodeLabel"><p>Test Common Module</p></span></div></foreignObject></g></g><g transform="translate(327.03125, 511)" id="flowchart-testClient-7" class="node default jobClass"><rect height="54" width="162.1875" y="-27" x="-81.09375" ry="5" rx="5" style="fill:#bbf !important;stroke:#333 !important;stroke-width:1px !important" class="basic label-container"/><g transform="translate(-66.09375, -12)" style="" class="label"><rect/><foreignObject height="24" width="132.1875"><div style="display: table-cell; white-space: nowrap; line-height: 1.5; max-width: 200px; text-align: center;" xmlns="http://www.w3.org/1999/xhtml"><span class="nodeLabel"><p>Test Client Module</p></span></div></foreignObject></g></g><g transform="translate(593.2890625, 511)" id="flowchart-testServer-8" class="node default jobClass"><rect height="54" width="164.953125" y="-27" x="-82.4765625" ry="5" rx="5" style="fill:#bbf !important;stroke:#333 !important;stroke-width:1px !important" class="basic label-container"/><g transform="translate(-67.4765625, -12)" style="" class="label"><rect/><foreignObject height="24" width="134.953125"><div style="display: table-cell; white-space: nowrap; line-height: 1.5; max-width: 200px; text-align: center;" xmlns="http://www.w3.org/1999/xhtml"><span class="nodeLabel"><p>Test Server Module</p></span></div></foreignObject></g></g><g transform="translate(722.7890625, 615)" id="flowchart-coverage-9" class="node default jobClass"><rect height="54" width="189" y="-27" x="-94.5" ry="5" rx="5" style="fill:#bbf !important;stroke:#333 !important;stroke-width:1px !important" class="basic label-container"/><g transform="translate(-79.5, -12)" style="" class="label"><rect/><foreignObject height="24" width="159"><div style="display: table-cell; white-space: nowrap; line-height: 1.5; max-width: 200px; text-align: center;" xmlns="http://www.w3.org/1999/xhtml"><span class="nodeLabel"><p>Code Coverage Report</p></span></div></foreignObject></g></g><g transform="translate(1244.23828125, 615)" id="flowchart-security-10" class="node default securityClass"><rect height="54" width="184.78125" y="-27" x="-92.390625" ry="5" rx="5" style="fill:#fbb !important;stroke:#333 !important;stroke-width:1px !important" class="basic label-container"/><g transform="translate(-77.390625, -12)" style="" class="label"><rect/><foreignObject height="24" width="154.78125"><div style="display: table-cell; white-space: nowrap; line-height: 1.5; max-width: 200px; text-align: center;" xmlns="http://www.w3.org/1999/xhtml"><span class="nodeLabel"><p>Dependency Scanning</p></span></div></foreignObject></g></g><g transform="translate(917.5, 769)" id="flowchart-build-17" class="node default jobClass"><rect height="54" width="188.21875" y="-27" x="-94.109375" ry="5" rx="5" style="fill:#bbf !important;stroke:#333 !important;stroke-width:1px !important" class="basic label-container"/><g transform="translate(-79.109375, -12)" style="" class="label"><rect/><foreignObject height="24" width="158.21875"><div style="display: table-cell; white-space: nowrap; line-height: 1.5; max-width: 200px; text-align: center;" xmlns="http://www.w3.org/1999/xhtml"><span class="nodeLabel"><p>Build Project Artifacts</p></span></div></foreignObject></g></g><g transform="translate(1027.765625, 923)" id="flowchart-packageLinux-18" class="node default jobClass"><rect height="54" width="156.265625" y="-27" x="-78.1328125" ry="5" rx="5" style="fill:#bbf !important;stroke:#333 !important;stroke-width:1px !important" class="basic label-container"/><g transform="translate(-63.1328125, -12)" style="" class="label"><rect/><foreignObject height="24" width="126.265625"><div style="display: table-cell; white-space: nowrap; line-height: 1.5; max-width: 200px; text-align: center;" xmlns="http://www.w3.org/1999/xhtml"><span class="nodeLabel"><p>Package for Linux</p></span></div></foreignObject></g></g><g transform="translate(1246.25, 923)" id="flowchart-packageWindows-19" class="node default jobClass"><rect height="54" width="180.703125" y="-27" x="-90.3515625" ry="5" rx="5" style="fill:#bbf !important;stroke:#333 !important;stroke-width:1px !important" class="basic label-container"/><g transform="translate(-75.3515625, -12)" style="" class="label"><rect/><foreignObject height="24" width="150.703125"><div style="display: table-cell; white-space: nowrap; line-height: 1.5; max-width: 200px; text-align: center;" xmlns="http://www.w3.org/1999/xhtml"><span class="nodeLabel"><p>Package for Windows</p></span></div></foreignObject></g></g><g transform="translate(1137.0078125, 1240)" id="flowchart-deploy-20" class="node default jobClass"><rect height="54" width="222.6875" y="-27" x="-111.34375" ry="5" rx="5" style="fill:#bbf !important;stroke:#333 !important;stroke-width:1px !important" class="basic label-container"/><g transform="translate(-96.34375, -12)" style="" class="label"><rect/><foreignObject height="24" width="192.6875"><div style="display: table-cell; white-space: nowrap; line-height: 1.5; max-width: 200px; text-align: center;" xmlns="http://www.w3.org/1999/xhtml"><span class="nodeLabel"><p>Deploy to Package Registry</p></span></div></foreignObject></g></g><g transform="translate(115.4375, 1081.5)" id="flowchart-JARs-21" class="node default artifactClass"><rect height="39" width="88.828125" y="-19.5" x="-44.4140625" ry="19.5" rx="19.5" style="fill:#bfb !important;stroke:#333 !important;stroke-width:1px !important" class="basic label-container"/><g transform="translate(-32.0390625, -12)" style="" class="label"><rect/><foreignObject height="24" width="64.078125"><div style="display: table-cell; white-space: nowrap; line-height: 1.5; max-width: 200px; text-align: center;" xmlns="http://www.w3.org/1999/xhtml"><span class="nodeLabel"><p>JAR Files</p></span></div></foreignObject></g></g><g transform="translate(322.3046875, 1081.5)" id="flowchart-testReports-22" class="node default artifactClass"><rect height="39" width="112.34375" y="-19.5" x="-56.171875" ry="19.5" rx="19.5" style="fill:#bfb !important;stroke:#333 !important;stroke-width:1px !important" class="basic label-container"/><g transform="translate(-43.796875, -12)" style="" class="label"><rect/><foreignObject height="24" width="87.59375"><div style="display: table-cell; white-space: nowrap; line-height: 1.5; max-width: 200px; text-align: center;" xmlns="http://www.w3.org/1999/xhtml"><span class="nodeLabel"><p>Test Reports</p></span></div></foreignObject></g></g><g transform="translate(642.375, 1081.5)" id="flowchart-coverageReports-23" class="node default artifactClass"><rect height="39" width="149.609375" y="-19.5" x="-74.8046875" ry="19.5" rx="19.5" style="fill:#bfb !important;stroke:#333 !important;stroke-width:1px !important" class="basic label-container"/><g transform="translate(-62.4296875, -12)" style="" class="label"><rect/><foreignObject height="24" width="124.859375"><div style="display: table-cell; white-space: nowrap; line-height: 1.5; max-width: 200px; text-align: center;" xmlns="http://www.w3.org/1999/xhtml"><span class="nodeLabel"><p>Coverage Reports</p></span></div></foreignObject></g></g><g transform="translate(837.984375, 1081.5)" id="flowchart-securityReports-24" class="node default artifactClass"><rect height="39" width="141.609375" y="-19.5" x="-70.8046875" ry="19.5" rx="19.5" style="fill:#bfb !important;stroke:#333 !important;stroke-width:1px !important" class="basic label-container"/><g transform="translate(-58.4296875, -12)" style="" class="label"><rect/><foreignObject height="24" width="116.859375"><div style="display: table-cell; white-space: nowrap; line-height: 1.5; max-width: 200px; text-align: center;" xmlns="http://www.w3.org/1999/xhtml"><span class="nodeLabel"><p>Security Reports</p></span></div></foreignObject></g></g><g transform="translate(1027.765625, 1081.5)" id="flowchart-linuxPackages-25" class="node default artifactClass"><rect height="63" width="137.953125" y="-31.5" x="-68.9765625" ry="31.5" rx="31.5" style="fill:#bfb !important;stroke:#333 !important;stroke-width:1px !important" class="basic label-container"/><g transform="translate(-53.6015625, -24)" style="" class="label"><rect/><foreignObject height="48" width="107.203125"><div style="display: table-cell; white-space: nowrap; line-height: 1.5; max-width: 200px; text-align: center;" xmlns="http://www.w3.org/1999/xhtml"><span class="nodeLabel"><p>Linux Packages<br />.deb, .rpm</p></span></div></foreignObject></g></g><g transform="translate(1246.25, 1081.5)" id="flowchart-windowsPackages-26" class="node default artifactClass"><rect height="63" width="162.390625" y="-31.5" x="-81.1953125" ry="31.5" rx="31.5" style="fill:#bfb !important;stroke:#333 !important;stroke-width:1px !important" class="basic label-container"/><g transform="translate(-65.8203125, -24)" style="" class="label"><rect/><foreignObject height="48" width="131.640625"><div style="display: table-cell; white-space: nowrap; line-height: 1.5; max-width: 200px; text-align: center;" xmlns="http://www.w3.org/1999/xhtml"><span class="nodeLabel"><p>Windows Packages<br />.exe, .msi</p></span></div></foreignObject></g></g></g></g></g></svg>